<?xml version="1.0" encoding="utf-8"?>
<!-- Generator: Adobe Illustrator 15.0.0, SVG Export Plug-In . SVG Version: 6.00 Build 0)  -->
<!DOCTYPE svg PUBLIC "-//W3C//DTD SVG 1.1//EN" "http://www.w3.org/Graphics/SVG/1.1/DTD/svg11.dtd">
<svg version="1.1" id="Layer_1" xmlns="http://www.w3.org/2000/svg" xmlns:xlink="http://www.w3.org/1999/xlink" x="0px" y="0px"
	 width="75px" height="72px" viewBox="0 0 75 72" enable-background="new 0 0 75 72" xml:space="preserve">
<g>
	<path fill="#81B3D2" d="M29.656,65.033h16V41.21h-16V65.033z M32.593,44.134h10.125V62.11H32.593V44.134z"/>
	<path fill="#81B3D2" d="M72.771,39.253l2.076-2.068l-9.908-9.865V0H51.127v13.567L37.5,0L0.152,37.185l2.077,2.068l7.832-7.795
		v37.618H6.124V72h63.875v-2.924h-5.059V31.458L72.771,39.253z M62.002,69.076H12.999V28.534L37.5,4.149l24.502,24.385V69.076z
		 M62.002,24.394l-7.938-7.902V2.924h7.938V24.394z"/>
	<path fill="#81B3D2" d="M29.906,27.08c0,4.261,3.47,7.713,7.75,7.713c4.279,0,7.75-3.452,7.75-7.713
		c0-4.259-3.471-7.713-7.75-7.713C33.375,19.367,29.906,22.821,29.906,27.08z M37.656,22.135c2.744,0,4.969,2.214,4.969,4.945
		c0,2.732-2.225,4.948-4.969,4.948c-2.746,0-4.97-2.216-4.97-4.948C32.686,24.349,34.911,22.135,37.656,22.135z"/>
	<rect x="17.061" y="41.21" fill="#81B3D2" width="3" height="3.919"/>
	<rect x="22.999" y="41.21" fill="#81B3D2" width="3" height="3.919"/>
	<rect x="17.061" y="47.182" fill="#81B3D2" width="3" height="3.919"/>
	<rect x="22.999" y="47.182" fill="#81B3D2" width="3" height="3.919"/>
	<rect x="48.998" y="41.21" fill="#81B3D2" width="3" height="3.919"/>
	<rect x="54.936" y="41.21" fill="#81B3D2" width="3" height="3.919"/>
	<rect x="48.998" y="47.182" fill="#81B3D2" width="3" height="3.919"/>
	<rect x="54.936" y="47.182" fill="#81B3D2" width="3" height="3.919"/>
</g>
</svg>
