<?xml version="1.0" encoding="utf-8"?>
<!-- Generator: Adobe Illustrator 15.0.0, SVG Export Plug-In . SVG Version: 6.00 Build 0)  -->
<!DOCTYPE svg PUBLIC "-//W3C//DTD SVG 1.1//EN" "http://www.w3.org/Graphics/SVG/1.1/DTD/svg11.dtd">
<svg version="1.1" id="Layer_1" xmlns="http://www.w3.org/2000/svg" xmlns:xlink="http://www.w3.org/1999/xlink" x="0px" y="0px"
	 width="17px" height="15px" viewBox="0 0 17 15" enable-background="new 0 0 17 15" xml:space="preserve">
<image overflow="visible" width="17" height="15" xlink:href="t.png" >
</image>
<g id="W6EeEF_1_">
	<g>
		<path fill="#FFFFFF" d="M10.95,0.144c1.685-0.496,2.984,0.27,3.577,1.179c0.673-0.231,1.331-0.481,2.011-0.708
			c-0.004,0.861-0.522,1.513-0.857,1.768c0.685,0.17,1.304-0.491,1.304-0.491c-0.169,1-1.006,1.788-1.563,2.024
			c-0.231,6.75-3.175,11.217-10.077,11.082c-0.522,0,0.075,0-0.446,0c-0.41,0-4.164-0.46-4.898-1.887
			c2.271,0.196,3.893-0.422,4.693-1.177c-0.96-0.3-2.679-0.477-2.979-2.95C2.064,9.09,2.279,9.212,2.905,9.103
			C1.705,8.247,0.374,7.53,0.448,5.33c0.285,0.328,1.067,0.536,1.34,0.472c-0.703-0.241-1.97-3.36-0.894-4.952
			c1.818,1.854,3.735,3.606,7.152,3.773C8.254,2.33,9.183,0.793,10.95,0.144z"/>
	</g>
</g>
</svg>
